<svg width="605" height="765" viewBox="0 0 605 765" fill="none" xmlns="http://www.w3.org/2000/svg">
<rect width="18.6866" height="18.6866" transform="matrix(0.73419 -0.678944 0.73419 0.678944 15.8746 33.8794)" fill="black"/>
<rect width="18.6866" height="18.6866" transform="matrix(0.73419 -0.678944 0.73419 0.678944 0 19.1997)" fill="#4A2499"/>
<rect x="8.81921" y="104.403" width="47.3026" height="8.81924" transform="rotate(-90 8.81921 104.403)" fill="#4A2499"/>
<rect x="8.81921" y="179.408" width="8.82" height="8.81924" transform="rotate(-90 8.81921 179.408)" fill="#4A2499"/>
<rect x="8.81921" y="192.482" width="8.82" height="8.81924" transform="rotate(-90 8.81921 192.482)" fill="#4A2499"/>
<rect x="8.81921" y="205.518" width="8.82" height="8.81924" transform="rotate(-90 8.81921 205.518)" fill="#4A2499"/>
<rect width="18.6866" height="18.6866" transform="matrix(0.73419 -0.678944 0.73419 0.678944 0 133.389)" fill="black"/>
<rect x="17.6384" y="719.313" width="148.432" height="8.81924" transform="rotate(-90 17.6384 719.313)" fill="#4A2499"/>
<rect x="201.079" y="743.78" width="160.51" height="8.15561" transform="rotate(180 201.079 743.78)" fill="#4A2499"/>
<rect width="210.415" height="8.81924" transform="matrix(0 1 1 0 569.723 554.585)" fill="black"/>
<path d="M17.1385 156.102C17.1385 158.261 15.388 160.012 13.2288 160.012C11.0697 160.012 9.31921 158.261 9.31921 156.102C9.31921 153.942 11.0697 152.192 13.2288 152.192C15.388 152.192 17.1385 153.942 17.1385 156.102Z" stroke="#4A2499"/>
<path d="M17.1385 112.062C17.1385 114.222 15.388 115.972 13.2288 115.972C11.0697 115.972 9.31921 114.222 9.31921 112.062C9.31921 109.903 11.0697 108.152 13.2288 108.152C15.388 108.152 17.1385 109.903 17.1385 112.062Z" stroke="#4A2499"/>
<rect x="569.723" y="412.68" width="8.82" height="8.82" transform="rotate(-90 569.723 412.68)" fill="#4A2499"/>
<rect x="569.723" y="499.115" width="75.0316" height="8.81924" transform="rotate(-90 569.723 499.115)" fill="#4A2499"/>
<path d="M554.603 726.703L557.907 722.083L561.323 726.703H566.083L560.287 719.115L565.887 711.639H560.987L557.795 716.035L554.519 711.639H549.871L555.471 719.003L549.647 726.703H554.603Z" fill="#4A2499"/>
<path d="M19.3381 743L22.6421 738.38L26.0581 743H30.8181L25.0221 735.412L30.6221 727.936H25.7221L22.5301 732.332L19.2541 727.936H14.6061L20.2061 735.3L14.3821 743H19.3381Z" fill="#4A2499"/>
<path d="M570.494 28L573.798 23.38L577.214 28H581.974L576.178 20.412L581.778 12.936H576.878L573.686 17.332L570.41 12.936H565.762L571.362 20.3L565.538 28H570.494Z" fill="#4A2499"/>
<path d="M571.242 545.688L574.546 541.068L577.962 545.688H582.722L576.926 538.1L582.526 530.624H577.626L574.434 535.02L571.158 530.624H566.51L572.11 537.988L566.286 545.688H571.242Z" fill="#4A2499"/>
<path d="M571.962 523.403L574.558 519.773L577.242 523.403H580.982L576.428 517.441L580.828 511.567H576.978L574.47 515.021L571.896 511.567H568.244L572.644 517.353L568.068 523.403H571.962Z" fill="#4A2499"/>
<circle cx="5.5" cy="5.5" r="5" transform="matrix(-1 0 0 1 545.029 747.067)" stroke="#4A2499"/>
<circle cx="155.427" cy="25.0732" r="5" stroke="#4A2499"/>
<circle cx="546.765" cy="19.8938" r="5.5" stroke="#4A2499"/>
<circle cx="575.148" cy="46.6194" r="5.5" stroke="#4A2499"/>
<circle cx="194.968" cy="22.6799" r="7.5" stroke="#4A2499"/>
<circle cx="174.566" cy="23.3235" r="6.5" stroke="#4A2499"/>
<circle cx="7" cy="7" r="6.5" transform="matrix(-1 0 0 1 596.181 714.383)" stroke="black"/>
<rect width="224.009" height="8.15561" transform="matrix(1 0 0 -1 380.991 740.53)" fill="#4A2499"/>
<rect x="144.636" y="29.3596" width="84.6647" height="8.15561" transform="rotate(180 144.636 29.3596)" fill="#4A2499"/>
<circle cx="7" cy="7" r="6.5" transform="matrix(-1 0 0 1 566.195 743.742)" fill="black" stroke="black"/>
<rect width="40.432" height="8.43158" transform="matrix(0.794211 -0.607642 0.666766 0.745268 0 525.337)" fill="black"/>
<rect width="40.432" height="8.43158" transform="matrix(0.794211 -0.607642 0.666766 0.745268 0.80835 545.135)" fill="black"/>
<rect width="40.432" height="8.43158" transform="matrix(0.794211 -0.607642 0.666766 0.745268 1.84106 563.363)" fill="black"/>
<path d="M575.41 78.724C576.194 78.724 576.885 78.612 577.482 78.388C578.098 78.1453 578.668 77.772 579.19 77.268L581.514 79.788C580.096 81.412 578.024 82.224 575.298 82.224C573.6 82.224 572.097 81.8973 570.79 81.244C569.484 80.572 568.476 79.648 567.766 78.472C567.057 77.296 566.702 75.9613 566.702 74.468C566.702 72.9933 567.048 71.668 567.738 70.492C568.448 69.2973 569.409 68.3733 570.622 67.72C571.854 67.048 573.236 66.712 574.766 66.712C576.204 66.712 577.51 67.02 578.686 67.636C579.862 68.2333 580.796 69.1107 581.486 70.268C582.196 71.4067 582.55 72.76 582.55 74.328L571.406 76.484C571.724 77.2307 572.218 77.7907 572.89 78.164C573.581 78.5373 574.421 78.724 575.41 78.724ZM574.766 70.016C573.665 70.016 572.769 70.3707 572.078 71.08C571.388 71.7893 571.024 72.7693 570.986 74.02L578.322 72.592C578.117 71.808 577.697 71.1827 577.062 70.716C576.428 70.2493 575.662 70.016 574.766 70.016ZM581.263 100.712C583.148 100.712 584.642 101.272 585.743 102.392C586.863 103.493 587.423 105.155 587.423 107.376V116H583.055V108.048C583.055 106.853 582.803 105.967 582.299 105.388C581.814 104.791 581.114 104.492 580.199 104.492C579.172 104.492 578.36 104.828 577.763 105.5C577.166 106.153 576.867 107.133 576.867 108.44V116H572.499V108.048C572.499 105.677 571.547 104.492 569.643 104.492C568.635 104.492 567.832 104.828 567.235 105.5C566.638 106.153 566.339 107.133 566.339 108.44V116H561.971V100.936H566.143V102.672C566.703 102.037 567.384 101.552 568.187 101.216C569.008 100.88 569.904 100.712 570.875 100.712C571.939 100.712 572.9 100.927 573.759 101.356C574.618 101.767 575.308 102.373 575.831 103.176C576.447 102.392 577.222 101.785 578.155 101.356C579.107 100.927 580.143 100.712 581.263 100.712ZM582.276 134.936V150H578.104V148.264C577.022 149.571 575.454 150.224 573.4 150.224C571.982 150.224 570.694 149.907 569.536 149.272C568.398 148.637 567.502 147.732 566.848 146.556C566.195 145.38 565.868 144.017 565.868 142.468C565.868 140.919 566.195 139.556 566.848 138.38C567.502 137.204 568.398 136.299 569.536 135.664C570.694 135.029 571.982 134.712 573.4 134.712C575.323 134.712 576.826 135.319 577.908 136.532V134.936H582.276ZM574.156 146.64C575.258 146.64 576.172 146.267 576.9 145.52C577.628 144.755 577.992 143.737 577.992 142.468C577.992 141.199 577.628 140.191 576.9 139.444C576.172 138.679 575.258 138.296 574.156 138.296C573.036 138.296 572.112 138.679 571.384 139.444C570.656 140.191 570.292 141.199 570.292 142.468C570.292 143.737 570.656 144.755 571.384 145.52C572.112 146.267 573.036 146.64 574.156 146.64ZM572.444 168.936H576.812V184H572.444V168.936ZM574.628 166.836C573.825 166.836 573.172 166.603 572.668 166.136C572.164 165.669 571.912 165.091 571.912 164.4C571.912 163.709 572.164 163.131 572.668 162.664C573.172 162.197 573.825 161.964 574.628 161.964C575.43 161.964 576.084 162.188 576.588 162.636C577.092 163.084 577.344 163.644 577.344 164.316C577.344 165.044 577.092 165.651 576.588 166.136C576.084 166.603 575.43 166.836 574.628 166.836ZM577.15 218.224C575.452 218.224 574.126 217.776 573.174 216.88C572.222 215.965 571.746 214.677 571.746 213.016V197.224H576.114V212.764C576.114 213.399 576.273 213.893 576.59 214.248C576.926 214.584 577.393 214.752 577.99 214.752C578.214 214.752 578.438 214.724 578.662 214.668C578.905 214.612 579.092 214.547 579.222 214.472L579.418 217.86C578.69 218.103 577.934 218.224 577.15 218.224Z" fill="black"/>
<path d="M437.084 27.224C435.833 27.224 434.611 27.0747 433.416 26.776C432.221 26.4587 431.269 26.0667 430.56 25.6L432.016 22.464C432.688 22.8933 433.5 23.248 434.452 23.528C435.404 23.7893 436.337 23.92 437.252 23.92C439.1 23.92 440.024 23.4627 440.024 22.548C440.024 22.1187 439.772 21.8107 439.268 21.624C438.764 21.4373 437.989 21.2787 436.944 21.148C435.712 20.9613 434.695 20.7467 433.892 20.504C433.089 20.2613 432.389 19.832 431.792 19.216C431.213 18.6 430.924 17.7227 430.924 16.584C430.924 15.632 431.195 14.792 431.736 14.064C432.296 13.3173 433.099 12.7387 434.144 12.328C435.208 11.9173 436.459 11.712 437.896 11.712C438.96 11.712 440.015 11.8333 441.06 12.076C442.124 12.3 443.001 12.6173 443.692 13.028L442.236 16.136C440.911 15.3893 439.464 15.016 437.896 15.016C436.963 15.016 436.263 15.1467 435.796 15.408C435.329 15.6693 435.096 16.0053 435.096 16.416C435.096 16.8827 435.348 17.2093 435.852 17.396C436.356 17.5827 437.159 17.76 438.26 17.928C439.492 18.1333 440.5 18.3573 441.284 18.6C442.068 18.824 442.749 19.244 443.328 19.86C443.907 20.476 444.196 21.3347 444.196 22.436C444.196 23.3693 443.916 24.2 443.356 24.928C442.796 25.656 441.975 26.2253 440.892 26.636C439.828 27.028 438.559 27.224 437.084 27.224ZM462.409 23.724C463.193 23.724 463.883 23.612 464.481 23.388C465.097 23.1453 465.666 22.772 466.189 22.268L468.513 24.788C467.094 26.412 465.022 27.224 462.297 27.224C460.598 27.224 459.095 26.8973 457.789 26.244C456.482 25.572 455.474 24.648 454.765 23.472C454.055 22.296 453.701 20.9613 453.701 19.468C453.701 17.9933 454.046 16.668 454.737 15.492C455.446 14.2973 456.407 13.3733 457.621 12.72C458.853 12.048 460.234 11.712 461.765 11.712C463.202 11.712 464.509 12.02 465.685 12.636C466.861 13.2333 467.794 14.1107 468.485 15.268C469.194 16.4067 469.549 17.76 469.549 19.328L458.405 21.484C458.722 22.2307 459.217 22.7907 459.889 23.164C460.579 23.5373 461.419 23.724 462.409 23.724ZM461.765 15.016C460.663 15.016 459.767 15.3707 459.077 16.08C458.386 16.7893 458.022 17.7693 457.985 19.02L465.321 17.592C465.115 16.808 464.695 16.1827 464.061 15.716C463.426 15.2493 462.661 15.016 461.765 15.016ZM489.57 11.712C491.437 11.712 492.94 12.272 494.078 13.392C495.236 14.512 495.814 16.1733 495.814 18.376V27H491.446V19.048C491.446 17.8533 491.185 16.9667 490.662 16.388C490.14 15.7907 489.384 15.492 488.394 15.492C487.293 15.492 486.416 15.8373 485.762 16.528C485.109 17.2 484.782 18.208 484.782 19.552V27H480.414V11.936H484.586V13.7C485.165 13.0653 485.884 12.58 486.742 12.244C487.601 11.8893 488.544 11.712 489.57 11.712ZM523.048 6.224V27H518.876V25.264C517.793 26.5707 516.225 27.224 514.172 27.224C512.753 27.224 511.465 26.9067 510.308 26.272C509.169 25.6373 508.273 24.732 507.62 23.556C506.966 22.38 506.64 21.0173 506.64 19.468C506.64 17.9187 506.966 16.556 507.62 15.38C508.273 14.204 509.169 13.2987 510.308 12.664C511.465 12.0293 512.753 11.712 514.172 11.712C516.094 11.712 517.597 12.3187 518.68 13.532V6.224H523.048ZM514.928 23.64C516.029 23.64 516.944 23.2667 517.672 22.52C518.4 21.7547 518.764 20.7373 518.764 19.468C518.764 18.1987 518.4 17.1907 517.672 16.444C516.944 15.6787 516.029 15.296 514.928 15.296C513.808 15.296 512.884 15.6787 512.156 16.444C511.428 17.1907 511.064 18.1987 511.064 19.468C511.064 20.7373 511.428 21.7547 512.156 22.52C512.884 23.2667 513.808 23.64 514.928 23.64Z" fill="black"/>
</svg>
