<svg width="288" height="353" viewBox="0 0 288 353" fill="none" xmlns="http://www.w3.org/2000/svg">
<rect width="197" height="10" transform="matrix(-1 0 0 1 197 306)" fill="black"/>
<rect width="237" height="11" transform="matrix(0 1 1 0 34 105)" fill="#4A2499"/>
<path d="M66.248 322L62.472 327.28L58.568 322H53.128L59.752 330.672L53.352 339.216H58.952L62.6 334.192L66.344 339.216H71.656L65.256 330.8L71.912 322H66.248Z" fill="#4A2499"/>
<path d="M23.248 285L19.472 290.28L15.568 285H10.128L16.752 293.672L10.352 302.216H15.952L19.6 297.192L23.344 302.216H28.656L22.256 293.8L28.912 285H23.248Z" fill="black"/>
<rect width="46.8666" height="10.1627" transform="matrix(0.690231 0.723589 -0.808835 0.588036 254.932 285.762)" fill="black"/>
<rect width="46.8666" height="10.1627" transform="matrix(0.690231 0.723589 -0.808835 0.588036 228.927 286.691)" fill="black"/>
<rect width="46.8666" height="10.1627" transform="matrix(0.690231 0.723589 -0.808835 0.588036 205.045 287.851)" fill="black"/>
<rect width="22.0898" height="22.0898" transform="matrix(0.753318 -0.657656 0.753318 0.657656 24.2697 14.5275)" fill="black"/>
<rect width="22.0898" height="22.0898" transform="matrix(0.753318 -0.657656 0.753318 0.657656 23.9014 48.145)" fill="black"/>
<rect width="22.0898" height="22.0898" transform="matrix(0.753318 -0.657656 0.753318 0.657656 23.5334 81.7626)" fill="black"/>
</svg>
