<svg width="428" height="479" viewBox="0 0 428 479" fill="none" xmlns="http://www.w3.org/2000/svg">
<path d="M52.669 31L48.893 25.72L44.989 31H39.549L46.173 22.328L39.773 13.784H45.373L49.021 18.808L52.765 13.784H58.077L51.677 22.2L58.333 31H52.669Z" fill="black"/>
<path d="M76.515 28.8777L73.683 24.9177L70.755 28.8777H66.675L71.643 22.3737L66.843 15.9657H71.043L73.779 19.7337L76.587 15.9657H80.571L75.771 22.2777L80.763 28.8777H76.515Z" fill="black"/>
<rect x="26.2807" y="8.59717" width="7.50877" height="213.209" fill="#4A2499"/>
<path d="M20.1491 22.9749C20.1491 26.8403 17.0118 29.9749 13.1404 29.9749C9.26897 29.9749 6.13159 26.8403 6.13159 22.9749C6.13159 19.1094 9.26897 15.9749 13.1404 15.9749C17.0118 15.9749 20.1491 19.1094 20.1491 22.9749Z" stroke="#4A2499"/>
<path d="M228.303 52.5205C227.813 52.8832 227.205 53.1605 226.479 53.3525C225.775 53.5232 225.039 53.6085 224.271 53.6085C222.202 53.6085 220.613 53.0859 219.503 52.0405C218.394 50.9952 217.839 49.4592 217.839 47.4325V32.3285H222.831V36.5205H227.087V40.3605H222.831V47.3685C222.831 48.0939 223.013 48.6592 223.375 49.0645C223.738 49.4485 224.261 49.6405 224.943 49.6405C225.711 49.6405 226.394 49.4272 226.991 49.0005L228.303 52.5205ZM250.649 35.8805C252.783 35.8805 254.5 36.5205 255.801 37.8005C257.124 39.0805 257.785 40.9792 257.785 43.4965V53.3525H252.793V44.2645C252.793 42.8992 252.495 41.8859 251.897 41.2245C251.3 40.5419 250.436 40.2005 249.305 40.2005C248.047 40.2005 247.044 40.5952 246.297 41.3845C245.551 42.1525 245.177 43.3045 245.177 44.8405V53.3525H240.185V29.6085H245.177V37.9285C245.839 37.2672 246.639 36.7659 247.577 36.4245C248.516 36.0619 249.54 35.8805 250.649 35.8805ZM288.845 36.1365V53.3525H284.077V51.3685C282.839 52.8619 281.047 53.6085 278.701 53.6085C277.079 53.6085 275.607 53.2459 274.285 52.5205C272.983 51.7952 271.959 50.7605 271.213 49.4165C270.466 48.0725 270.093 46.5152 270.093 44.7445C270.093 42.9739 270.466 41.4165 271.213 40.0725C271.959 38.7285 272.983 37.6939 274.285 36.9685C275.607 36.2432 277.079 35.8805 278.701 35.8805C280.898 35.8805 282.615 36.5739 283.853 37.9605V36.1365H288.845ZM279.565 49.5125C280.823 49.5125 281.869 49.0859 282.701 48.2325C283.533 47.3579 283.949 46.1952 283.949 44.7445C283.949 43.2939 283.533 42.1419 282.701 41.2885C281.869 40.4139 280.823 39.9765 279.565 39.9765C278.285 39.9765 277.229 40.4139 276.397 41.2885C275.565 42.1419 275.149 43.2939 275.149 44.7445C275.149 46.1952 275.565 47.3579 276.397 48.2325C277.229 49.0859 278.285 49.5125 279.565 49.5125ZM312.897 52.5205C312.406 52.8832 311.798 53.1605 311.073 53.3525C310.369 53.5232 309.633 53.6085 308.865 53.6085C306.796 53.6085 305.206 53.0859 304.097 52.0405C302.988 50.9952 302.433 49.4592 302.433 47.4325V32.3285H307.425V36.5205H311.681V40.3605H307.425V47.3685C307.425 48.0939 307.606 48.6592 307.969 49.0645C308.332 49.4485 308.854 49.6405 309.537 49.6405C310.305 49.6405 310.988 49.4272 311.585 49.0005L312.897 52.5205ZM328.043 34.6965C328.576 34.9312 328.992 35.2832 329.291 35.7525C329.59 36.2219 329.739 36.7765 329.739 37.4165C329.739 38.3339 329.451 39.0805 328.875 39.6565C328.299 40.2112 327.563 40.4885 326.667 40.4885C325.771 40.4885 325.024 40.2005 324.427 39.6245C323.851 39.0485 323.563 38.3125 323.563 37.4165C323.563 36.9899 323.616 36.5632 323.723 36.1365C323.83 35.7099 324.064 35.0699 324.427 34.2165L326.283 29.6085H329.451L328.043 34.6965ZM348.009 53.6085C346.579 53.6085 345.182 53.4379 343.817 53.0965C342.451 52.7339 341.363 52.2859 340.553 51.7525L342.217 48.1685C342.985 48.6592 343.913 49.0645 345.001 49.3845C346.089 49.6832 347.155 49.8325 348.201 49.8325C350.313 49.8325 351.369 49.3099 351.369 48.2645C351.369 47.7739 351.081 47.4219 350.505 47.2085C349.929 46.9952 349.043 46.8139 347.849 46.6645C346.441 46.4512 345.278 46.2059 344.361 45.9285C343.443 45.6512 342.643 45.1605 341.961 44.4565C341.299 43.7525 340.969 42.7499 340.969 41.4485C340.969 40.3605 341.278 39.4005 341.897 38.5685C342.537 37.7152 343.454 37.0539 344.649 36.5845C345.865 36.1152 347.294 35.8805 348.937 35.8805C350.153 35.8805 351.358 36.0192 352.553 36.2965C353.769 36.5525 354.771 36.9152 355.561 37.3845L353.897 40.9365C352.382 40.0832 350.729 39.6565 348.937 39.6565C347.87 39.6565 347.07 39.8059 346.537 40.1045C346.003 40.4032 345.737 40.7872 345.737 41.2565C345.737 41.7899 346.025 42.1632 346.601 42.3765C347.177 42.5899 348.094 42.7925 349.353 42.9845C350.761 43.2192 351.913 43.4752 352.809 43.7525C353.705 44.0085 354.483 44.4885 355.145 45.1925C355.806 45.8965 356.137 46.8779 356.137 48.1365C356.137 49.2032 355.817 50.1525 355.177 50.9845C354.537 51.8165 353.598 52.4672 352.361 52.9365C351.145 53.3845 349.694 53.6085 348.009 53.6085Z" fill="black"/>
<rect y="42.9856" width="6.8777" height="198.982" transform="rotate(-90 0 42.9856)" fill="#4A2499"/>
<path d="M401.219 45.3374C401.219 49.209 398.081 52.3474 394.211 52.3474C390.34 52.3474 387.202 49.209 387.202 45.3374C387.202 41.4658 390.34 38.3274 394.211 38.3274C398.081 38.3274 401.219 41.4658 401.219 45.3374Z" fill="#4A2499" stroke="#4A2499"/>
<path d="M15.248 67L11.472 61.72L7.568 67H2.128L8.752 58.328L2.352 49.784H7.952L11.6 54.808L15.344 49.784H20.656L14.256 58.2L20.912 67H15.248Z" fill="#4A2499"/>
<path d="M400.843 75.4273C402.997 75.4273 404.704 76.0673 405.963 77.3473C407.243 78.606 407.883 80.5046 407.883 83.0433V92.8993H402.891V83.8113C402.891 82.446 402.603 81.4326 402.027 80.7713C401.472 80.0886 400.672 79.7473 399.627 79.7473C398.453 79.7473 397.525 80.1313 396.843 80.8993C396.16 81.646 395.819 82.766 395.819 84.2593V92.8993H390.827V83.8113C390.827 81.102 389.739 79.7473 387.563 79.7473C386.411 79.7473 385.493 80.1313 384.811 80.8993C384.128 81.646 383.787 82.766 383.787 84.2593V92.8993H378.795V75.6833H383.563V77.6673C384.203 76.942 384.981 76.3873 385.899 76.0033C386.837 75.6193 387.861 75.4273 388.971 75.4273C390.187 75.4273 391.285 75.6726 392.267 76.1633C393.248 76.6326 394.037 77.326 394.635 78.2433C395.339 77.3473 396.224 76.654 397.291 76.1633C398.379 75.6726 399.563 75.4273 400.843 75.4273ZM394.154 128.155C395.05 128.155 395.84 128.027 396.522 127.771C397.226 127.494 397.877 127.067 398.474 126.491L401.13 129.371C399.509 131.227 397.141 132.155 394.026 132.155C392.085 132.155 390.368 131.782 388.874 131.035C387.381 130.267 386.229 129.211 385.418 127.867C384.608 126.523 384.202 124.998 384.202 123.291C384.202 121.606 384.597 120.091 385.386 118.747C386.197 117.382 387.296 116.326 388.682 115.579C390.09 114.811 391.669 114.427 393.418 114.427C395.061 114.427 396.554 114.779 397.898 115.483C399.242 116.166 400.309 117.169 401.098 118.491C401.909 119.793 402.314 121.339 402.314 123.131L389.578 125.595C389.941 126.449 390.506 127.089 391.274 127.515C392.064 127.942 393.024 128.155 394.154 128.155ZM393.418 118.203C392.16 118.203 391.136 118.609 390.346 119.419C389.557 120.23 389.141 121.35 389.098 122.779L397.482 121.147C397.248 120.251 396.768 119.537 396.042 119.003C395.317 118.47 394.442 118.203 393.418 118.203Z" fill="black"/>
<rect x="386.702" y="230.403" width="7.51" height="7.50877" transform="rotate(-90 386.702 230.403)" fill="black"/>
<rect width="19.717" height="19.8834" transform="matrix(0.704099 -0.710102 0.76877 0.639525 0 239.246)" fill="black"/>
<rect x="386.702" y="244.158" width="7.51" height="7.50877" transform="rotate(-90 386.702 244.158)" fill="black"/>
<rect width="19.717" height="19.8834" transform="matrix(0.704099 -0.710102 0.76877 0.639525 16.8947 253.001)" fill="#4A2499"/>
<rect x="386.702" y="257.914" width="7.51" height="7.50877" transform="rotate(-90 386.702 257.914)" fill="black"/>
<rect width="19.717" height="19.8834" transform="matrix(0.704099 -0.710102 0.76877 0.639525 1.8772 268.476)" fill="black"/>
<rect x="386.702" y="264.791" width="7.50877" height="213.209" fill="#4A2499"/>
<rect width="19.717" height="19.8834" transform="matrix(0.704099 -0.710102 0.76877 0.639525 18.7719 282.231)" fill="#4A2499"/>
<path d="M37.0438 451.122C37.0438 454.993 33.9058 458.132 30.0351 458.132C26.1643 458.132 23.0263 454.993 23.0263 451.122C23.0263 447.25 26.1643 444.112 30.0351 444.112C33.9058 444.112 37.0438 447.25 37.0438 451.122Z" stroke="#4A2499"/>
<path d="M59.5702 451.122C59.5702 454.993 56.4321 458.132 52.5614 458.132C48.6906 458.132 45.5526 454.993 45.5526 451.122C45.5526 447.25 48.6906 444.112 52.5614 444.112C56.4321 444.112 59.5702 447.25 59.5702 451.122Z" fill="black" stroke="black"/>
<path d="M82.0965 451.122C82.0965 454.993 78.9585 458.132 75.0878 458.132C71.217 458.132 68.079 454.993 68.079 451.122C68.079 447.25 71.217 444.112 75.0878 444.112C78.9585 444.112 82.0965 447.25 82.0965 451.122Z" stroke="#4A2499"/>
<path d="M415.248 475L411.472 469.72L407.568 475H402.128L408.752 466.328L402.352 457.784H407.952L411.6 462.808L415.344 457.784H420.656L414.256 466.2L420.912 475H415.248Z" fill="#4A2499"/>
<rect x="321" y="452.209" width="7.51" height="7.51" transform="rotate(-90 321 452.209)" fill="#4A2499"/>
<rect x="336.018" y="452.209" width="6.8777" height="91.9825" transform="rotate(-90 336.018 452.209)" fill="#4A2499"/>
</svg>
