<svg width="228" height="278" viewBox="0 0 228 278" fill="none" xmlns="http://www.w3.org/2000/svg">
<rect x="14" y="5" width="4" height="124" fill="#4A2499"/>
<rect y="25" width="4" height="106" transform="rotate(-90 0 25)" fill="#4A2499"/>
<rect x="206" y="154" width="4" height="124" fill="#4A2499"/>
<rect x="179" y="263" width="4" height="49" transform="rotate(-90 179 263)" fill="#4A2499"/>
<rect x="171" y="263" width="4" height="4" transform="rotate(-90 171 263)" fill="#4A2499"/>
<rect x="206" y="150" width="4" height="4" transform="rotate(-90 206 150)" fill="black"/>
<rect x="206" y="142" width="4" height="4" transform="rotate(-90 206 142)" fill="black"/>
<rect x="206" y="134" width="4" height="4" transform="rotate(-90 206 134)" fill="black"/>
<path d="M119.893 29.532C119.617 29.736 119.275 29.892 118.867 30C118.471 30.096 118.057 30.144 117.625 30.144C116.461 30.144 115.567 29.85 114.943 29.262C114.319 28.674 114.007 27.81 114.007 26.67V18.174H116.815V20.532H119.209V22.692H116.815V26.634C116.815 27.042 116.917 27.36 117.121 27.588C117.325 27.804 117.619 27.912 118.003 27.912C118.435 27.912 118.819 27.792 119.155 27.552L119.893 29.532ZM132.462 20.172C133.662 20.172 134.628 20.532 135.36 21.252C136.104 21.972 136.476 23.04 136.476 24.456V30H133.668V24.888C133.668 24.12 133.5 23.55 133.164 23.178C132.828 22.794 132.342 22.602 131.706 22.602C130.998 22.602 130.434 22.824 130.014 23.268C129.594 23.7 129.384 24.348 129.384 25.212V30H126.576V16.644H129.384V21.324C129.756 20.952 130.206 20.67 130.734 20.478C131.262 20.274 131.838 20.172 132.462 20.172ZM153.947 20.316V30H151.265V28.884C150.569 29.724 149.561 30.144 148.241 30.144C147.329 30.144 146.501 29.94 145.757 29.532C145.025 29.124 144.449 28.542 144.029 27.786C143.609 27.03 143.399 26.154 143.399 25.158C143.399 24.162 143.609 23.286 144.029 22.53C144.449 21.774 145.025 21.192 145.757 20.784C146.501 20.376 147.329 20.172 148.241 20.172C149.477 20.172 150.443 20.562 151.139 21.342V20.316H153.947ZM148.727 27.84C149.435 27.84 150.023 27.6 150.491 27.12C150.959 26.628 151.193 25.974 151.193 25.158C151.193 24.342 150.959 23.694 150.491 23.214C150.023 22.722 149.435 22.476 148.727 22.476C148.007 22.476 147.413 22.722 146.945 23.214C146.477 23.694 146.243 24.342 146.243 25.158C146.243 25.974 146.477 26.628 146.945 27.12C147.413 27.6 148.007 27.84 148.727 27.84ZM167.477 29.532C167.201 29.736 166.859 29.892 166.451 30C166.055 30.096 165.641 30.144 165.209 30.144C164.045 30.144 163.151 29.85 162.527 29.262C161.903 28.674 161.591 27.81 161.591 26.67V18.174H164.399V20.532H166.793V22.692H164.399V26.634C164.399 27.042 164.501 27.36 164.705 27.588C164.909 27.804 165.203 27.912 165.587 27.912C166.019 27.912 166.403 27.792 166.739 27.552L167.477 29.532ZM175.996 19.506C176.296 19.638 176.53 19.836 176.698 20.1C176.866 20.364 176.95 20.676 176.95 21.036C176.95 21.552 176.788 21.972 176.464 22.296C176.14 22.608 175.726 22.764 175.222 22.764C174.718 22.764 174.298 22.602 173.962 22.278C173.638 21.954 173.476 21.54 173.476 21.036C173.476 20.796 173.506 20.556 173.566 20.316C173.626 20.076 173.758 19.716 173.962 19.236L175.006 16.644H176.788L175.996 19.506ZM187.227 30.144C186.423 30.144 185.637 30.048 184.869 29.856C184.101 29.652 183.489 29.4 183.033 29.1L183.969 27.084C184.401 27.36 184.923 27.588 185.535 27.768C186.147 27.936 186.747 28.02 187.335 28.02C188.523 28.02 189.117 27.726 189.117 27.138C189.117 26.862 188.955 26.664 188.631 26.544C188.307 26.424 187.809 26.322 187.137 26.238C186.345 26.118 185.691 25.98 185.175 25.824C184.659 25.668 184.209 25.392 183.825 24.996C183.453 24.6 183.267 24.036 183.267 23.304C183.267 22.692 183.441 22.152 183.789 21.684C184.149 21.204 184.665 20.832 185.337 20.568C186.021 20.304 186.825 20.172 187.749 20.172C188.433 20.172 189.111 20.25 189.783 20.406C190.467 20.55 191.031 20.754 191.475 21.018L190.539 23.016C189.687 22.536 188.757 22.296 187.749 22.296C187.149 22.296 186.699 22.38 186.399 22.548C186.099 22.716 185.949 22.932 185.949 23.196C185.949 23.496 186.111 23.706 186.435 23.826C186.759 23.946 187.275 24.06 187.983 24.168C188.775 24.3 189.423 24.444 189.927 24.6C190.431 24.744 190.869 25.014 191.241 25.41C191.613 25.806 191.799 26.358 191.799 27.066C191.799 27.666 191.619 28.2 191.259 28.668C190.899 29.136 190.371 29.502 189.675 29.766C188.991 30.018 188.175 30.144 187.227 30.144Z" fill="black"/>
<path d="M213.759 43.172C214.971 43.172 215.931 43.532 216.639 44.252C217.359 44.96 217.719 46.028 217.719 47.456V53H214.911V47.888C214.911 47.12 214.749 46.55 214.425 46.178C214.113 45.794 213.663 45.602 213.075 45.602C212.415 45.602 211.893 45.818 211.509 46.25C211.125 46.67 210.933 47.3 210.933 48.14V53H208.125V47.888C208.125 46.364 207.513 45.602 206.289 45.602C205.641 45.602 205.125 45.818 204.741 46.25C204.357 46.67 204.165 47.3 204.165 48.14V53H201.357V43.316H204.039V44.432C204.399 44.024 204.837 43.712 205.353 43.496C205.881 43.28 206.457 43.172 207.081 43.172C207.765 43.172 208.383 43.31 208.935 43.586C209.487 43.85 209.931 44.24 210.267 44.756C210.663 44.252 211.161 43.862 211.761 43.586C212.373 43.31 213.039 43.172 213.759 43.172ZM209.996 72.894C210.5 72.894 210.944 72.822 211.328 72.678C211.724 72.522 212.09 72.282 212.426 71.958L213.92 73.578C213.008 74.622 211.676 75.144 209.924 75.144C208.832 75.144 207.866 74.934 207.026 74.514C206.186 74.082 205.538 73.488 205.082 72.732C204.626 71.976 204.398 71.118 204.398 70.158C204.398 69.21 204.62 68.358 205.064 67.602C205.52 66.834 206.138 66.24 206.918 65.82C207.71 65.388 208.598 65.172 209.582 65.172C210.506 65.172 211.346 65.37 212.102 65.766C212.858 66.15 213.458 66.714 213.902 67.458C214.358 68.19 214.586 69.06 214.586 70.068L207.422 71.454C207.626 71.934 207.944 72.294 208.376 72.534C208.82 72.774 209.36 72.894 209.996 72.894ZM209.582 67.296C208.874 67.296 208.298 67.524 207.854 67.98C207.41 68.436 207.176 69.066 207.152 69.87L211.868 68.952C211.736 68.448 211.466 68.046 211.058 67.746C210.65 67.446 210.158 67.296 209.582 67.296Z" fill="black"/>
<rect x="9" y="147.143" width="11" height="11" transform="rotate(-47.7539 9 147.143)" fill="#4A2499"/>
<rect x="10" y="164.143" width="11" height="11" transform="rotate(-47.7539 10 164.143)" fill="#4A2499"/>
<rect x="1" y="156.143" width="11" height="11" transform="rotate(-47.7539 1 156.143)" fill="black"/>
<rect y="139.143" width="11" height="11" transform="rotate(-47.7539 0 139.143)" fill="black"/>
<path d="M8.452 40L6.328 37.03L4.132 40H1.072L4.798 35.122L1.198 30.316H4.348L6.4 33.142L8.506 30.316H11.494L7.894 35.05L11.638 40H8.452Z" fill="#4A2499"/>
<path d="M219.452 275L217.328 272.03L215.132 275H212.072L215.798 270.122L212.198 265.316H215.348L217.4 268.142L219.506 265.316H222.494L218.894 270.05L222.638 275H219.452Z" fill="#4A2499"/>
<path d="M28.452 17L26.328 14.03L24.132 17H21.072L24.798 12.122L21.198 7.316H24.348L26.4 10.142L28.506 7.316H31.494L27.894 12.05L31.638 17H28.452Z" fill="black"/>
<path d="M40.968 16L39.552 14.02L38.088 16H36.048L38.532 12.748L36.132 9.544H38.232L39.6 11.428L41.004 9.544H42.996L40.596 12.7L43.092 16H40.968Z" fill="black"/>
<circle cx="7" cy="13" r="3.5" stroke="#4A2499"/>
<circle cx="16" cy="262" r="3.5" stroke="#4A2499"/>
<circle cx="210" cy="26" r="3.5" fill="#4A2499" stroke="#4A2499"/>
<circle cx="28" cy="262" r="3.5" fill="black" stroke="black"/>
<circle cx="40" cy="262" r="3.5" stroke="#4A2499"/>
</svg>
