<svg width="287" height="511" viewBox="0 0 287 511" fill="none" xmlns="http://www.w3.org/2000/svg">
<rect x="96" y="498" width="53" height="5" transform="rotate(180 96 498)" fill="#4A2499"/>
<rect x="86" y="25" width="86" height="5" transform="rotate(180 86 25)" fill="#4A2499"/>
<rect x="15" y="130" width="127" height="5" transform="rotate(-90 15 130)" fill="#4A2499"/>
<rect width="23.0389" height="4.8191" transform="matrix(0.61555 0.788098 -0.747777 0.66395 111.762 7)" fill="black"/>
<rect width="23.0389" height="4.8191" transform="matrix(0.61555 0.788098 -0.747777 0.66395 100.361 7.49731)" fill="black"/>
<rect width="23.0389" height="4.8191" transform="matrix(0.61555 0.788098 -0.747777 0.66395 89.8914 8.11865)" fill="black"/>
<rect x="251" y="499" width="5" height="5" transform="rotate(-90 251 499)" fill="#4A2499"/>
<rect x="252" y="498" width="5" height="5" transform="rotate(-90 252 498)" fill="#4A2499"/>
<rect x="259" y="499" width="5" height="5" transform="rotate(-90 259 499)" fill="#4A2499"/>
<rect x="259" y="491" width="5" height="5" transform="rotate(-90 259 491)" fill="#4A2499"/>
<path d="M30.452 17L28.328 14.03L26.132 17H23.072L26.798 12.122L23.198 7.316H26.348L28.4 10.142L30.506 7.316H33.494L29.894 12.05L33.638 17H30.452Z" fill="#4A2499"/>
<path d="M10.452 37L8.328 34.03L6.132 37H3.072L6.798 32.122L3.198 27.316H6.348L8.4 30.142L10.506 27.316H13.494L9.894 32.05L13.638 37H10.452Z" fill="#4A2499"/>
<path d="M264.5 20C264.5 22.5361 262.661 24.5 260.5 24.5C258.339 24.5 256.5 22.5361 256.5 20C256.5 17.4639 258.339 15.5 260.5 15.5C262.661 15.5 264.5 17.4639 264.5 20Z" stroke="black"/>
<path d="M263.5 21.5C263.5 23.2319 262.311 24.5 261 24.5C259.689 24.5 258.5 23.2319 258.5 21.5C258.5 19.7681 259.689 18.5 261 18.5C262.311 18.5 263.5 19.7681 263.5 21.5Z" stroke="black"/>
<rect width="10.653" height="10.6749" transform="matrix(-0.695692 -0.71834 0.672356 -0.740228 23.4897 501.409)" fill="#4A2499"/>
<rect width="10.653" height="10.6749" transform="matrix(-0.695692 -0.71834 0.672356 -0.740228 14.9146 492.554)" fill="black"/>
<rect width="10.653" height="10.6749" transform="matrix(-0.695692 -0.71834 0.672356 -0.740228 15.1851 510.552)" fill="black"/>
<path d="M14.3947 426.216C13.3987 426.216 12.4327 426.084 11.4967 425.82C10.5727 425.544 9.82874 425.19 9.26474 424.758L10.2547 422.562C10.7947 422.958 11.4367 423.276 12.1807 423.516C12.9247 423.756 13.6687 423.876 14.4127 423.876C15.2407 423.876 15.8527 423.756 16.2487 423.516C16.6447 423.264 16.8427 422.934 16.8427 422.526C16.8427 422.226 16.7227 421.98 16.4827 421.788C16.2547 421.584 15.9547 421.422 15.5827 421.302C15.2227 421.182 14.7307 421.05 14.1067 420.906C13.1467 420.678 12.3607 420.45 11.7487 420.222C11.1367 419.994 10.6087 419.628 10.1647 419.124C9.73274 418.62 9.51674 417.948 9.51674 417.108C9.51674 416.376 9.71474 415.716 10.1107 415.128C10.5067 414.528 11.1007 414.054 11.8927 413.706C12.6967 413.358 13.6747 413.184 14.8267 413.184C15.6307 413.184 16.4167 413.28 17.1847 413.472C17.9527 413.664 18.6247 413.94 19.2007 414.3L18.3007 416.514C17.1367 415.854 15.9727 415.524 14.8087 415.524C13.9927 415.524 13.3867 415.656 12.9907 415.92C12.6067 416.184 12.4147 416.532 12.4147 416.964C12.4147 417.396 12.6367 417.72 13.0807 417.936C13.5367 418.14 14.2267 418.344 15.1507 418.548C16.1107 418.776 16.8967 419.004 17.5087 419.232C18.1207 419.46 18.6427 419.82 19.0747 420.312C19.5187 420.804 19.7407 421.47 19.7407 422.31C19.7407 423.03 19.5367 423.69 19.1287 424.29C18.7327 424.878 18.1327 425.346 17.3287 425.694C16.5247 426.042 15.5467 426.216 14.3947 426.216ZM14.5009 435.184C15.6649 435.184 16.6789 435.412 17.5429 435.868C18.4069 436.324 19.0789 436.996 19.5589 437.884C20.0389 438.772 20.2789 439.846 20.2789 441.106V448H17.3629V444.976H11.6029V448H8.72291V441.106C8.72291 439.846 8.96291 438.772 9.44291 437.884C9.92291 436.996 10.5949 436.324 11.4589 435.868C12.3229 435.412 13.3369 435.184 14.5009 435.184ZM17.3629 442.636V440.836C17.3629 439.792 17.1049 439.006 16.5889 438.478C16.0729 437.938 15.3709 437.668 14.4829 437.668C13.5829 437.668 12.8749 437.938 12.3589 438.478C11.8549 439.006 11.6029 439.792 11.6029 440.836V442.636H17.3629ZM15.5089 457.184C17.0089 457.184 18.1789 457.658 19.0189 458.606C19.8589 459.542 20.2789 460.88 20.2789 462.62V470H17.3629V462.71C17.3629 461.702 17.1229 460.946 16.6429 460.442C16.1749 459.926 15.5209 459.668 14.6809 459.668C13.7929 459.668 13.0789 459.944 12.5389 460.496C12.0109 461.036 11.7469 461.84 11.7469 462.908V470H8.83091V457.4H11.6569V458.93C12.0889 458.354 12.6289 457.922 13.2769 457.634C13.9249 457.334 14.6689 457.184 15.5089 457.184Z" fill="black"/>
<path d="M105.894 488.184C107.394 488.184 108.564 488.658 109.404 489.606C110.244 490.542 110.664 491.88 110.664 493.62V501H107.748V493.71C107.748 492.702 107.508 491.946 107.028 491.442C106.56 490.926 105.906 490.668 105.066 490.668C104.178 490.668 103.464 490.944 102.924 491.496C102.396 492.036 102.132 492.84 102.132 493.908V501H99.2157V488.4H102.042V489.93C102.474 489.354 103.014 488.922 103.662 488.634C104.31 488.334 105.054 488.184 105.894 488.184ZM129.908 488.4V501H127.082V499.47C126.218 500.634 124.946 501.216 123.266 501.216C121.778 501.216 120.614 500.748 119.774 499.812C118.946 498.864 118.532 497.52 118.532 495.78V488.4H121.448V495.69C121.448 496.698 121.682 497.46 122.15 497.976C122.63 498.48 123.278 498.732 124.094 498.732C124.97 498.732 125.672 498.462 126.2 497.922C126.728 497.37 126.992 496.56 126.992 495.492V488.4H129.908ZM144.671 488.184C146.171 488.184 147.341 488.658 148.181 489.606C149.021 490.542 149.441 491.88 149.441 493.62V501H146.525V493.71C146.525 492.702 146.285 491.946 145.805 491.442C145.337 490.926 144.683 490.668 143.843 490.668C142.955 490.668 142.241 490.944 141.701 491.496C141.173 492.036 140.909 492.84 140.909 493.908V501H137.993V488.4H140.819V489.93C141.251 489.354 141.791 488.922 142.439 488.634C143.087 488.334 143.831 488.184 144.671 488.184ZM167.713 499.92C167.113 500.328 166.357 500.646 165.445 500.874C164.545 501.102 163.585 501.216 162.565 501.216C161.293 501.216 160.213 501.06 159.325 500.748C158.437 500.424 157.765 499.98 157.309 499.416C156.853 498.84 156.625 498.186 156.625 497.454C156.625 496.782 156.811 496.188 157.183 495.672C157.555 495.156 158.065 494.772 158.713 494.52C158.221 494.256 157.837 493.896 157.561 493.44C157.297 492.984 157.165 492.474 157.165 491.91C157.165 491.226 157.375 490.602 157.795 490.038C158.215 489.474 158.851 489.024 159.703 488.688C160.555 488.352 161.599 488.184 162.835 488.184C163.651 488.184 164.449 488.268 165.229 488.436C166.009 488.592 166.687 488.808 167.263 489.084L166.453 491.316C165.349 490.8 164.179 490.542 162.943 490.542C162.007 490.542 161.299 490.686 160.819 490.974C160.351 491.25 160.117 491.628 160.117 492.108C160.117 492.552 160.273 492.894 160.585 493.134C160.909 493.362 161.395 493.476 162.043 493.476H165.481V495.78H161.863C161.131 495.78 160.567 495.906 160.171 496.158C159.775 496.41 159.577 496.776 159.577 497.256C159.577 497.76 159.829 498.156 160.333 498.444C160.849 498.72 161.635 498.858 162.691 498.858C163.435 498.858 164.179 498.762 164.923 498.57C165.667 498.366 166.297 498.084 166.813 497.724L167.713 499.92ZM184.816 498.66V501H173.8V499.308L176.788 495.672H174.79V493.494H178.57L180.838 490.74H173.926V488.4H184.546V490.074L181.702 493.548H183.538V495.708H179.938L177.508 498.66H184.816Z" fill="black"/>
<path d="M147.698 16.172C148.91 16.172 149.87 16.532 150.578 17.252C151.298 17.96 151.658 19.028 151.658 20.456V26H148.85V20.888C148.85 20.12 148.688 19.55 148.364 19.178C148.052 18.794 147.602 18.602 147.014 18.602C146.354 18.602 145.832 18.818 145.448 19.25C145.064 19.67 144.872 20.3 144.872 21.14V26H142.064V20.888C142.064 19.364 141.452 18.602 140.228 18.602C139.58 18.602 139.064 18.818 138.68 19.25C138.296 19.67 138.104 20.3 138.104 21.14V26H135.296V16.316H137.978V17.432C138.338 17.024 138.776 16.712 139.292 16.496C139.82 16.28 140.396 16.172 141.02 16.172C141.704 16.172 142.322 16.31 142.874 16.586C143.426 16.85 143.87 17.24 144.206 17.756C144.602 17.252 145.1 16.862 145.7 16.586C146.312 16.31 146.978 16.172 147.698 16.172ZM163.931 16.316V24.38C163.931 26.156 163.481 27.476 162.581 28.34C161.681 29.204 160.373 29.636 158.657 29.636C157.745 29.636 156.881 29.522 156.065 29.294C155.261 29.066 154.583 28.736 154.031 28.304L155.147 26.288C155.555 26.624 156.053 26.888 156.641 27.08C157.229 27.272 157.823 27.368 158.423 27.368C159.359 27.368 160.043 27.152 160.475 26.72C160.907 26.288 161.123 25.628 161.123 24.74V24.416C160.763 24.776 160.337 25.052 159.845 25.244C159.353 25.436 158.825 25.532 158.261 25.532C156.989 25.532 155.981 25.172 155.237 24.452C154.493 23.72 154.121 22.628 154.121 21.176V16.316H156.929V20.762C156.929 22.334 157.583 23.12 158.891 23.12C159.563 23.12 160.103 22.904 160.511 22.472C160.919 22.028 161.123 21.374 161.123 20.51V16.316H163.931ZM177.354 16.172C178.254 16.172 179.07 16.382 179.802 16.802C180.546 17.21 181.128 17.792 181.548 18.548C181.968 19.292 182.178 20.162 182.178 21.158C182.178 22.154 181.968 23.03 181.548 23.786C181.128 24.53 180.546 25.112 179.802 25.532C179.07 25.94 178.254 26.144 177.354 26.144C176.118 26.144 175.146 25.754 174.438 24.974V29.492H171.63V16.316H174.312V17.432C175.008 16.592 176.022 16.172 177.354 16.172ZM176.868 23.84C177.588 23.84 178.176 23.6 178.632 23.12C179.1 22.628 179.334 21.974 179.334 21.158C179.334 20.342 179.1 19.694 178.632 19.214C178.176 18.722 177.588 18.476 176.868 18.476C176.148 18.476 175.554 18.722 175.086 19.214C174.63 19.694 174.402 20.342 174.402 21.158C174.402 21.974 174.63 22.628 175.086 23.12C175.554 23.6 176.148 23.84 176.868 23.84ZM186.74 17.594C187.076 17.126 187.526 16.772 188.09 16.532C188.666 16.292 189.326 16.172 190.07 16.172V18.764C189.758 18.74 189.548 18.728 189.44 18.728C188.636 18.728 188.006 18.956 187.55 19.412C187.094 19.856 186.866 20.528 186.866 21.428V26H184.058V16.316H186.74V17.594ZM196.259 26.144C195.239 26.144 194.321 25.934 193.505 25.514C192.701 25.082 192.071 24.488 191.615 23.732C191.159 22.976 190.931 22.118 190.931 21.158C190.931 20.198 191.159 19.34 191.615 18.584C192.071 17.828 192.701 17.24 193.505 16.82C194.321 16.388 195.239 16.172 196.259 16.172C197.279 16.172 198.191 16.388 198.995 16.82C199.799 17.24 200.429 17.828 200.885 18.584C201.341 19.34 201.569 20.198 201.569 21.158C201.569 22.118 201.341 22.976 200.885 23.732C200.429 24.488 199.799 25.082 198.995 25.514C198.191 25.934 197.279 26.144 196.259 26.144ZM196.259 23.84C196.979 23.84 197.567 23.6 198.023 23.12C198.491 22.628 198.725 21.974 198.725 21.158C198.725 20.342 198.491 19.694 198.023 19.214C197.567 18.722 196.979 18.476 196.259 18.476C195.539 18.476 194.945 18.722 194.477 19.214C194.009 19.694 193.775 20.342 193.775 21.158C193.775 21.974 194.009 22.628 194.477 23.12C194.945 23.6 195.539 23.84 196.259 23.84ZM202.726 29.636C201.742 29.636 200.992 29.456 200.476 29.096L201.232 27.062C201.556 27.29 201.952 27.404 202.42 27.404C202.78 27.404 203.062 27.284 203.266 27.044C203.47 26.816 203.572 26.468 203.572 26V16.316H206.38V25.982C206.38 27.11 206.056 27.998 205.408 28.646C204.772 29.306 203.878 29.636 202.726 29.636ZM204.976 14.966C204.46 14.966 204.04 14.816 203.716 14.516C203.392 14.216 203.23 13.844 203.23 13.4C203.23 12.956 203.392 12.584 203.716 12.284C204.04 11.984 204.46 11.834 204.976 11.834C205.492 11.834 205.912 11.978 206.236 12.266C206.56 12.554 206.722 12.914 206.722 13.346C206.722 13.814 206.56 14.204 206.236 14.516C205.912 14.816 205.492 14.966 204.976 14.966ZM213.844 23.894C214.348 23.894 214.792 23.822 215.176 23.678C215.572 23.522 215.938 23.282 216.274 22.958L217.768 24.578C216.856 25.622 215.524 26.144 213.772 26.144C212.68 26.144 211.714 25.934 210.874 25.514C210.034 25.082 209.386 24.488 208.93 23.732C208.474 22.976 208.246 22.118 208.246 21.158C208.246 20.21 208.468 19.358 208.912 18.602C209.368 17.834 209.986 17.24 210.766 16.82C211.558 16.388 212.446 16.172 213.43 16.172C214.354 16.172 215.194 16.37 215.95 16.766C216.706 17.15 217.306 17.714 217.75 18.458C218.206 19.19 218.434 20.06 218.434 21.068L211.27 22.454C211.474 22.934 211.792 23.294 212.224 23.534C212.668 23.774 213.208 23.894 213.844 23.894ZM213.43 18.296C212.722 18.296 212.146 18.524 211.702 18.98C211.258 19.436 211.024 20.066 211 20.87L215.716 19.952C215.584 19.448 215.314 19.046 214.906 18.746C214.498 18.446 214.006 18.296 213.43 18.296ZM225.001 26.144C223.969 26.144 223.039 25.934 222.211 25.514C221.395 25.082 220.753 24.488 220.285 23.732C219.829 22.976 219.601 22.118 219.601 21.158C219.601 20.198 219.829 19.34 220.285 18.584C220.753 17.828 221.395 17.24 222.211 16.82C223.039 16.388 223.969 16.172 225.001 16.172C226.021 16.172 226.909 16.388 227.665 16.82C228.433 17.24 228.991 17.846 229.339 18.638L227.161 19.808C226.657 18.92 225.931 18.476 224.983 18.476C224.251 18.476 223.645 18.716 223.165 19.196C222.685 19.676 222.445 20.33 222.445 21.158C222.445 21.986 222.685 22.64 223.165 23.12C223.645 23.6 224.251 23.84 224.983 23.84C225.943 23.84 226.669 23.396 227.161 22.508L229.339 23.696C228.991 24.464 228.433 25.064 227.665 25.496C226.909 25.928 226.021 26.144 225.001 26.144ZM236.718 25.532C236.442 25.736 236.1 25.892 235.692 26C235.296 26.096 234.882 26.144 234.45 26.144C233.286 26.144 232.392 25.85 231.768 25.262C231.144 24.674 230.832 23.81 230.832 22.67V14.174H233.64V16.532H236.034V18.692H233.64V22.634C233.64 23.042 233.742 23.36 233.946 23.588C234.15 23.804 234.444 23.912 234.828 23.912C235.26 23.912 235.644 23.792 235.98 23.552L236.718 25.532ZM241.562 26.144C240.758 26.144 239.972 26.048 239.204 25.856C238.436 25.652 237.824 25.4 237.368 25.1L238.304 23.084C238.736 23.36 239.258 23.588 239.87 23.768C240.482 23.936 241.082 24.02 241.67 24.02C242.858 24.02 243.452 23.726 243.452 23.138C243.452 22.862 243.29 22.664 242.966 22.544C242.642 22.424 242.144 22.322 241.472 22.238C240.68 22.118 240.026 21.98 239.51 21.824C238.994 21.668 238.544 21.392 238.16 20.996C237.788 20.6 237.602 20.036 237.602 19.304C237.602 18.692 237.776 18.152 238.124 17.684C238.484 17.204 239 16.832 239.672 16.568C240.356 16.304 241.16 16.172 242.084 16.172C242.768 16.172 243.446 16.25 244.118 16.406C244.802 16.55 245.366 16.754 245.81 17.018L244.874 19.016C244.022 18.536 243.092 18.296 242.084 18.296C241.484 18.296 241.034 18.38 240.734 18.548C240.434 18.716 240.284 18.932 240.284 19.196C240.284 19.496 240.446 19.706 240.77 19.826C241.094 19.946 241.61 20.06 242.318 20.168C243.11 20.3 243.758 20.444 244.262 20.6C244.766 20.744 245.204 21.014 245.576 21.41C245.948 21.806 246.134 22.358 246.134 23.066C246.134 23.666 245.954 24.2 245.594 24.668C245.234 25.136 244.706 25.502 244.01 25.766C243.326 26.018 242.51 26.144 241.562 26.144Z" fill="black"/>
</svg>
