<svg width="314" height="481" viewBox="0 0 314 481" fill="none" xmlns="http://www.w3.org/2000/svg">
<rect x="170.036" y="14.2612" width="143.964" height="5.49923" fill="#4A2499"/>
<rect x="291.337" y="139.681" width="139.68" height="5.91185" transform="rotate(-90 291.337 139.681)" fill="black"/>
<rect x="143.964" y="464.135" width="143.964" height="5.49923" transform="rotate(180 143.964 464.135)" fill="#4A2499"/>
<rect x="292.462" y="433.303" width="50.5929" height="5.66787" transform="rotate(-90 292.462 433.303)" fill="#4A2499"/>
<rect x="19.271" y="139.681" width="100.086" height="5.66787" transform="rotate(-90 19.271 139.681)" fill="#4A2499"/>
<rect x="292.462" y="358.55" width="100.086" height="5.66787" transform="rotate(-90 292.462 358.55)" fill="#4A2499"/>
<rect x="19.271" y="151.779" width="5.60738" height="5.66787" transform="rotate(-90 19.271 151.779)" fill="#4A2499"/>
<rect x="19.271" y="160.578" width="5.60738" height="5.66787" transform="rotate(-90 19.271 160.578)" fill="#4A2499"/>
<rect x="19.271" y="169.376" width="5.60738" height="5.66787" transform="rotate(-90 19.271 169.376)" fill="#4A2499"/>
<rect x="292.462" y="372.848" width="5.49923" height="5.66787" transform="rotate(-90 292.462 372.848)" fill="#4A2499"/>
<rect x="150.765" y="19.9154" width="5.49923" height="5.66787" transform="rotate(-90 150.765 19.9154)" fill="#4A2499"/>
<rect x="159.832" y="20.0334" width="5.49923" height="5.66787" transform="rotate(-90 159.832 20.0334)" fill="#4A2499"/>
<rect x="22.6714" y="338.753" width="141.88" height="5.66787" transform="rotate(90 22.6714 338.753)" fill="#4A2499"/>
<path d="M32.3905 453.602L30.2665 450.632L28.0705 453.602H25.0105L28.7365 448.724L25.1365 443.918H28.2865L30.3385 446.744L32.4445 443.918H35.4325L31.8325 448.652L35.5765 453.602H32.3905Z" fill="#4A2499"/>
<path d="M280.643 467.678L278.519 464.708L276.323 467.678H273.263L276.989 462.8L273.389 457.994H276.539L278.591 460.82L280.697 457.994H283.685L280.085 462.728L283.829 467.678H280.643Z" fill="#4A2499"/>
<path d="M296.38 450.303L294.256 447.333L292.06 450.303H289L292.726 445.425L289.126 440.619H292.276L294.328 443.445L296.434 440.619H299.422L295.822 445.353L299.566 450.303H296.38Z" fill="black"/>
<path d="M286.044 33.2391L283.92 30.2691L281.724 33.2391H278.664L282.39 28.3611L278.79 23.5551H281.94L283.992 26.3811L286.098 23.5551H289.086L285.486 28.2891L289.23 33.2391H286.044Z" fill="#4A2499"/>
<path d="M308.966 6.56235C308.966 8.70179 307.174 10.4617 304.931 10.4617C302.689 10.4617 300.897 8.70179 300.897 6.56235C300.897 4.42291 302.689 2.66296 304.931 2.66296C307.174 2.66296 308.966 4.42291 308.966 6.56235Z" stroke="#4A2499"/>
<path d="M298.763 461.899C298.763 464.038 296.972 465.798 294.729 465.798C292.487 465.798 290.695 464.038 290.695 461.899C290.695 459.759 292.487 457.999 294.729 457.999C296.972 457.999 298.763 459.759 298.763 461.899Z" stroke="#4A2499"/>
<path d="M308.897 6.61327C308.897 8.78974 307.111 10.5636 304.897 10.5636C302.683 10.5636 300.897 8.78974 300.897 6.61327C300.897 4.4368 302.683 2.66296 304.897 2.66296C307.111 2.66296 308.897 4.4368 308.897 6.61327Z" stroke="#4A2499"/>
<path d="M14.2366 450.9C14.2366 453.04 12.4447 454.8 10.2023 454.8C7.95984 454.8 6.16797 453.04 6.16797 450.9C6.16797 448.761 7.95984 447.001 10.2023 447.001C12.4447 447.001 14.2366 448.761 14.2366 450.9Z" stroke="#4A2499"/>
<path d="M14.2366 450.9C14.2366 453.04 12.4447 454.8 10.2023 454.8C7.95984 454.8 6.16797 453.04 6.16797 450.9C6.16797 448.761 7.95984 447.001 10.2023 447.001C12.4447 447.001 14.2366 448.761 14.2366 450.9Z" stroke="black"/>
<path d="M33.5071 470.697C33.5071 472.837 31.7152 474.597 29.4728 474.597C27.2303 474.597 25.4385 472.837 25.4385 470.697C25.4385 468.558 27.2303 466.798 29.4728 466.798C31.7152 466.798 33.5071 468.558 33.5071 470.697Z" fill="black" stroke="black"/>
<path d="M13.1027 441.065C13.1027 442.64 11.8094 443.927 10.202 443.927C8.59462 443.927 7.30127 442.64 7.30127 441.065C7.30127 439.489 8.59462 438.202 10.202 438.202C11.8094 438.202 13.1027 439.489 13.1027 441.065Z" stroke="#4A2499"/>
<path d="M13.1027 344.255C13.1027 345.211 12.3172 345.995 11.3355 345.995C10.3538 345.995 9.56836 345.211 9.56836 344.255C9.56836 343.3 10.3538 342.515 11.3355 342.515C12.3172 342.515 13.1027 343.3 13.1027 344.255Z" stroke="#4A2499"/>
<rect width="12.2852" height="12.2852" transform="matrix(0.717703 -0.696349 0.717703 0.696349 13.4692 21.7531)" fill="#4A2499"/>
<rect width="12.2852" height="12.2852" transform="matrix(0.717703 -0.696349 0.717703 0.696349 23.6714 11.8544)" fill="#4A2499"/>
<rect width="12.2852" height="12.2852" transform="matrix(0.717703 -0.696349 0.717703 0.696349 3.26709 11.8544)" fill="black"/>
<rect width="12.2852" height="12.2852" transform="matrix(0.717703 -0.696349 0.717703 0.696349 153.033 461.691)" fill="#4A2499"/>
<rect width="12.2852" height="12.2852" transform="matrix(0.717703 -0.696349 0.717703 0.696349 173.437 461.691)" fill="#4A2499"/>
<rect width="12.2852" height="12.2852" transform="matrix(0.717703 -0.696349 0.717703 0.696349 193.841 461.691)" fill="#4A2499"/>
<rect width="12.2852" height="12.2852" transform="matrix(0.717703 -0.696349 0.717703 0.696349 286.661 242.822)" fill="black"/>
</svg>
